<mxfile host="app.diagrams.net" modified="2024-02-17T00:57:08.703Z" agent="Mozilla/5.0 (Windows NT 10.0; Win64; x64) AppleWebKit/537.36 (KHTML, like Gecko) Chrome/92.0.4515.131 Safari/537.36 Edg/92.0.902.67" etag="8uVNKqwqHlMDy7DR84Ez" version="23.1.5" type="device" pages="2">
  <diagram name="Page-1" id="rcYPDGvK9FxIkrTMv_cZ">
    <mxGraphModel dx="1434" dy="796" grid="1" gridSize="10" guides="1" tooltips="1" connect="1" arrows="1" fold="1" page="1" pageScale="1" pageWidth="827" pageHeight="1169" math="0" shadow="0">
      <root>
        <mxCell id="0" />
        <mxCell id="1" parent="0" />
        <mxCell id="818x3cpljc10isp82Or2-1" value="" style="strokeWidth=1;shadow=0;dashed=0;align=center;html=1;shape=mxgraph.mockup.containers.window;align=left;verticalAlign=top;spacingLeft=8;strokeColor2=#008cff;strokeColor3=#c4c4c4;fontColor=#666666;mainText=;fontSize=17;labelBackgroundColor=none;whiteSpace=wrap;" parent="1" vertex="1">
          <mxGeometry x="20" y="190" width="720" height="460" as="geometry" />
        </mxCell>
        <mxCell id="818x3cpljc10isp82Or2-6" value="" style="group" parent="1" vertex="1" connectable="0">
          <mxGeometry x="290" y="340" width="170" height="30" as="geometry" />
        </mxCell>
        <mxCell id="818x3cpljc10isp82Or2-4" value="Concluida" style="strokeWidth=1;shadow=0;dashed=0;align=center;html=1;shape=mxgraph.mockup.forms.rrect;rSize=0;fillColor=#eeeeee;strokeColor=#999999;gradientColor=#cccccc;align=left;spacingLeft=4;fontSize=17;fontColor=#666666;labelPosition=right;" parent="818x3cpljc10isp82Or2-6" vertex="1">
          <mxGeometry x="155" y="7.5" width="15" height="15" as="geometry" />
        </mxCell>
        <mxCell id="818x3cpljc10isp82Or2-5" value="Line 1" style="strokeWidth=1;shadow=0;dashed=0;align=center;html=1;shape=mxgraph.mockup.text.textBox;fontColor=#666666;align=left;fontSize=17;spacingLeft=4;spacingTop=-3;whiteSpace=wrap;strokeColor=#666666;mainText=" parent="818x3cpljc10isp82Or2-6" vertex="1">
          <mxGeometry width="150" height="30" as="geometry" />
        </mxCell>
        <mxCell id="818x3cpljc10isp82Or2-7" value="" style="group" parent="1" vertex="1" connectable="0">
          <mxGeometry x="290" y="380" width="170" height="30" as="geometry" />
        </mxCell>
        <mxCell id="818x3cpljc10isp82Or2-8" value="Concluida" style="strokeWidth=1;shadow=0;dashed=0;align=center;html=1;shape=mxgraph.mockup.forms.rrect;rSize=0;fillColor=#eeeeee;strokeColor=#999999;gradientColor=#cccccc;align=left;spacingLeft=4;fontSize=17;fontColor=#666666;labelPosition=right;" parent="818x3cpljc10isp82Or2-7" vertex="1">
          <mxGeometry x="155" y="7.5" width="15" height="15" as="geometry" />
        </mxCell>
        <mxCell id="818x3cpljc10isp82Or2-9" value="Line 1" style="strokeWidth=1;shadow=0;dashed=0;align=center;html=1;shape=mxgraph.mockup.text.textBox;fontColor=#666666;align=left;fontSize=17;spacingLeft=4;spacingTop=-3;whiteSpace=wrap;strokeColor=#666666;mainText=" parent="818x3cpljc10isp82Or2-7" vertex="1">
          <mxGeometry width="150" height="30" as="geometry" />
        </mxCell>
        <mxCell id="818x3cpljc10isp82Or2-10" value="&lt;font style=&quot;font-size: 16px;&quot;&gt;To-do List&lt;/font&gt;" style="text;html=1;align=center;verticalAlign=middle;whiteSpace=wrap;rounded=0;" parent="1" vertex="1">
          <mxGeometry x="315" y="240" width="130" height="30" as="geometry" />
        </mxCell>
        <mxCell id="818x3cpljc10isp82Or2-12" value="" style="group" parent="1" vertex="1" connectable="0">
          <mxGeometry x="290" y="280" width="280" height="40" as="geometry" />
        </mxCell>
        <mxCell id="818x3cpljc10isp82Or2-2" value="Line 1" style="strokeWidth=1;shadow=0;dashed=0;align=center;html=1;shape=mxgraph.mockup.text.textBox;fontColor=#666666;align=left;fontSize=17;spacingLeft=4;spacingTop=-3;whiteSpace=wrap;strokeColor=#666666;mainText=" parent="818x3cpljc10isp82Or2-12" vertex="1">
          <mxGeometry y="5" width="150" height="30" as="geometry" />
        </mxCell>
        <mxCell id="818x3cpljc10isp82Or2-3" value="Adicionar&lt;br&gt;To-Do" style="strokeWidth=1;shadow=0;dashed=0;align=center;html=1;shape=mxgraph.mockup.buttons.button;strokeColor=#666666;fontColor=#ffffff;mainText=;buttonStyle=round;fontSize=17;fontStyle=1;fillColor=#008cff;whiteSpace=wrap;" parent="818x3cpljc10isp82Or2-12" vertex="1">
          <mxGeometry x="160" width="120" height="40" as="geometry" />
        </mxCell>
        <mxCell id="818x3cpljc10isp82Or2-13" value="" style="group" parent="1" vertex="1" connectable="0">
          <mxGeometry x="290" y="420" width="170" height="30" as="geometry" />
        </mxCell>
        <mxCell id="818x3cpljc10isp82Or2-14" value="Concluida" style="strokeWidth=1;shadow=0;dashed=0;align=center;html=1;shape=mxgraph.mockup.forms.rrect;rSize=0;fillColor=#eeeeee;strokeColor=#999999;gradientColor=#cccccc;align=left;spacingLeft=4;fontSize=17;fontColor=#666666;labelPosition=right;" parent="818x3cpljc10isp82Or2-13" vertex="1">
          <mxGeometry x="155" y="7.5" width="15" height="15" as="geometry" />
        </mxCell>
        <mxCell id="818x3cpljc10isp82Or2-15" value="Line 1" style="strokeWidth=1;shadow=0;dashed=0;align=center;html=1;shape=mxgraph.mockup.text.textBox;fontColor=#666666;align=left;fontSize=17;spacingLeft=4;spacingTop=-3;whiteSpace=wrap;strokeColor=#666666;mainText=" parent="818x3cpljc10isp82Or2-13" vertex="1">
          <mxGeometry width="150" height="30" as="geometry" />
        </mxCell>
        <mxCell id="818x3cpljc10isp82Or2-16" value="" style="group" parent="1" vertex="1" connectable="0">
          <mxGeometry x="290" y="460" width="170" height="30" as="geometry" />
        </mxCell>
        <mxCell id="818x3cpljc10isp82Or2-17" value="Concluida" style="strokeWidth=1;shadow=0;dashed=0;align=center;html=1;shape=mxgraph.mockup.forms.rrect;rSize=0;fillColor=#eeeeee;strokeColor=#999999;gradientColor=#cccccc;align=left;spacingLeft=4;fontSize=17;fontColor=#666666;labelPosition=right;" parent="818x3cpljc10isp82Or2-16" vertex="1">
          <mxGeometry x="155" y="7.5" width="15" height="15" as="geometry" />
        </mxCell>
        <mxCell id="818x3cpljc10isp82Or2-18" value="Line 1" style="strokeWidth=1;shadow=0;dashed=0;align=center;html=1;shape=mxgraph.mockup.text.textBox;fontColor=#666666;align=left;fontSize=17;spacingLeft=4;spacingTop=-3;whiteSpace=wrap;strokeColor=#666666;mainText=" parent="818x3cpljc10isp82Or2-16" vertex="1">
          <mxGeometry width="150" height="30" as="geometry" />
        </mxCell>
      </root>
    </mxGraphModel>
  </diagram>
  <diagram id="uyqXvYc8JvLPSieDrhOD" name="Page-2">
    <mxGraphModel dx="1434" dy="796" grid="1" gridSize="10" guides="1" tooltips="1" connect="1" arrows="1" fold="1" page="1" pageScale="1" pageWidth="827" pageHeight="1169" math="0" shadow="0">
      <root>
        <mxCell id="0" />
        <mxCell id="1" parent="0" />
        <mxCell id="9ieL7lrPhdpbq8tdQ2Cv-5" style="rounded=0;orthogonalLoop=1;jettySize=auto;html=1;exitX=0.5;exitY=0.5;exitDx=0;exitDy=0;exitPerimeter=0;entryX=0;entryY=0.5;entryDx=0;entryDy=0;" parent="1" source="9ieL7lrPhdpbq8tdQ2Cv-1" target="9ieL7lrPhdpbq8tdQ2Cv-2" edge="1">
          <mxGeometry relative="1" as="geometry" />
        </mxCell>
        <mxCell id="9ieL7lrPhdpbq8tdQ2Cv-1" value="Actor" style="shape=umlActor;verticalLabelPosition=bottom;verticalAlign=top;html=1;" parent="1" vertex="1">
          <mxGeometry x="90" y="390" width="30" height="60" as="geometry" />
        </mxCell>
        <mxCell id="9ieL7lrPhdpbq8tdQ2Cv-3" value="" style="html=1;whiteSpace=wrap;align=center;fillColor=none;" parent="1" vertex="1">
          <mxGeometry x="260" y="260" width="510" height="360" as="geometry" />
        </mxCell>
        <mxCell id="9ieL7lrPhdpbq8tdQ2Cv-2" value="Geremciar To Do List" style="ellipse;whiteSpace=wrap;html=1;fillColor=none;" parent="1" vertex="1">
          <mxGeometry x="385" y="290" width="140" height="70" as="geometry" />
        </mxCell>
      </root>
    </mxGraphModel>
  </diagram>
</mxfile>
